<mxfile host="app.diagrams.net" modified="2023-11-21T14:05:25.938Z" agent="Mozilla/5.0 (iPhone; CPU iPhone OS 15_7_2 like Mac OS X) AppleWebKit/605.1.15 (KHTML, like Gecko) Version/15.6.4 Mobile/15E148 Safari/604.1" etag="HJV4JoW3rTX94RpDypDu" version="22.1.3" type="github">
  <diagram name="第 1 页" id="qARJv5t8qv7T0nK0jZ-0">
    <mxGraphModel dx="652" dy="1158" grid="0" gridSize="10" guides="1" tooltips="1" connect="1" arrows="1" fold="1" page="0" pageScale="1" pageWidth="827" pageHeight="1169" math="0" shadow="0">
      <root>
        <mxCell id="0" />
        <mxCell id="1" parent="0" />
        <mxCell id="W9Le-NY_zxLpUQUmvvFF-3" value="" style="edgeStyle=none;curved=1;rounded=0;orthogonalLoop=1;jettySize=auto;html=1;fontSize=12;startSize=8;endSize=8;" parent="1" source="W9Le-NY_zxLpUQUmvvFF-1" target="W9Le-NY_zxLpUQUmvvFF-2" edge="1">
          <mxGeometry relative="1" as="geometry" />
        </mxCell>
        <mxCell id="W9Le-NY_zxLpUQUmvvFF-1" value="提前将玩家选好队伍" style="whiteSpace=wrap;html=1;fontSize=16;" parent="1" vertex="1">
          <mxGeometry x="58" y="-191" width="120" height="52" as="geometry" />
        </mxCell>
        <mxCell id="W9Le-NY_zxLpUQUmvvFF-5" value="" style="edgeStyle=none;curved=1;rounded=0;orthogonalLoop=1;jettySize=auto;html=1;fontSize=12;startSize=8;endSize=8;" parent="1" source="W9Le-NY_zxLpUQUmvvFF-2" target="W9Le-NY_zxLpUQUmvvFF-4" edge="1">
          <mxGeometry relative="1" as="geometry" />
        </mxCell>
        <mxCell id="W9Le-NY_zxLpUQUmvvFF-2" value="玩家加入" style="whiteSpace=wrap;html=1;fontSize=16;" parent="1" vertex="1">
          <mxGeometry x="58" y="-86" width="120" height="62" as="geometry" />
        </mxCell>
        <mxCell id="W9Le-NY_zxLpUQUmvvFF-7" value="" style="edgeStyle=none;curved=1;rounded=0;orthogonalLoop=1;jettySize=auto;html=1;fontSize=12;startSize=8;endSize=8;" parent="1" source="W9Le-NY_zxLpUQUmvvFF-4" target="W9Le-NY_zxLpUQUmvvFF-6" edge="1">
          <mxGeometry relative="1" as="geometry" />
        </mxCell>
        <mxCell id="uAXUZzEl7_gABhflO_rd-4" value="" style="edgeStyle=none;curved=1;rounded=0;orthogonalLoop=1;jettySize=auto;html=1;fontSize=12;startSize=8;endSize=8;" parent="1" source="W9Le-NY_zxLpUQUmvvFF-4" target="uAXUZzEl7_gABhflO_rd-3" edge="1">
          <mxGeometry relative="1" as="geometry" />
        </mxCell>
        <mxCell id="W9Le-NY_zxLpUQUmvvFF-4" value="当所有玩家进入服务器后 向所有玩家发送确认准备信息" style="whiteSpace=wrap;html=1;fontSize=16;" parent="1" vertex="1">
          <mxGeometry x="58" y="37" width="120" height="91" as="geometry" />
        </mxCell>
        <mxCell id="W9Le-NY_zxLpUQUmvvFF-6" value="注:准备信息有效时间为一分钟 时间过即无效&lt;br&gt;准备信息只显示xx队伍已准备" style="whiteSpace=wrap;html=1;fontSize=16;" parent="1" vertex="1">
          <mxGeometry x="304" y="25.25" width="120" height="114.5" as="geometry" />
        </mxCell>
        <mxCell id="uAXUZzEl7_gABhflO_rd-6" value="" style="edgeStyle=none;curved=1;rounded=0;orthogonalLoop=1;jettySize=auto;html=1;fontSize=12;startSize=8;endSize=8;" parent="1" source="uAXUZzEl7_gABhflO_rd-3" target="uAXUZzEl7_gABhflO_rd-5" edge="1">
          <mxGeometry relative="1" as="geometry" />
        </mxCell>
        <mxCell id="OOp7aShyH6z5rNpulKWo-2" value="" style="edgeStyle=none;curved=1;rounded=0;orthogonalLoop=1;jettySize=auto;html=1;fontSize=12;startSize=8;endSize=8;" parent="1" source="uAXUZzEl7_gABhflO_rd-3" target="OOp7aShyH6z5rNpulKWo-1" edge="1">
          <mxGeometry relative="1" as="geometry" />
        </mxCell>
        <mxCell id="uAXUZzEl7_gABhflO_rd-3" value="当所有玩家/队伍准备后开始两分钟倒计时" style="whiteSpace=wrap;html=1;fontSize=16;" parent="1" vertex="1">
          <mxGeometry x="58" y="263.5" width="120" height="60" as="geometry" />
        </mxCell>
        <mxCell id="uAXUZzEl7_gABhflO_rd-5" value="当倒计时内有玩家退出后 倒计时自动停止 等到玩家重新连接或管理员强制开启游戏后继续倒计时" style="whiteSpace=wrap;html=1;fontSize=16;" parent="1" vertex="1">
          <mxGeometry x="304" y="227.75" width="120" height="131.5" as="geometry" />
        </mxCell>
        <mxCell id="OOp7aShyH6z5rNpulKWo-4" value="" style="edgeStyle=none;curved=1;rounded=0;orthogonalLoop=1;jettySize=auto;html=1;fontSize=12;startSize=8;endSize=8;" parent="1" source="OOp7aShyH6z5rNpulKWo-1" target="OOp7aShyH6z5rNpulKWo-3" edge="1">
          <mxGeometry relative="1" as="geometry" />
        </mxCell>
        <mxCell id="OOp7aShyH6z5rNpulKWo-6" value="" style="edgeStyle=none;curved=1;rounded=0;orthogonalLoop=1;jettySize=auto;html=1;fontSize=12;startSize=8;endSize=8;" parent="1" source="OOp7aShyH6z5rNpulKWo-1" target="OOp7aShyH6z5rNpulKWo-5" edge="1">
          <mxGeometry relative="1" as="geometry" />
        </mxCell>
        <mxCell id="OOp7aShyH6z5rNpulKWo-1" value="传送至投票区域 每次投票为40秒 倒计时剩余10秒后分隔区域并计算投票数" style="whiteSpace=wrap;html=1;fontSize=16;" parent="1" vertex="1">
          <mxGeometry x="58" y="443.5" width="120" height="104.5" as="geometry" />
        </mxCell>
        <mxCell id="OOp7aShyH6z5rNpulKWo-3" value="第一轮没有特殊道具 第二轮开始排名最后的两个队伍奖获得道具" style="whiteSpace=wrap;html=1;fontSize=16;" parent="1" vertex="1">
          <mxGeometry x="298" y="446.38" width="120" height="98.75" as="geometry" />
        </mxCell>
        <mxCell id="OOp7aShyH6z5rNpulKWo-8" value="" style="edgeStyle=none;curved=1;rounded=0;orthogonalLoop=1;jettySize=auto;html=1;fontSize=12;startSize=8;endSize=8;" parent="1" source="OOp7aShyH6z5rNpulKWo-5" target="OOp7aShyH6z5rNpulKWo-7" edge="1">
          <mxGeometry relative="1" as="geometry" />
        </mxCell>
        <mxCell id="OOp7aShyH6z5rNpulKWo-11" value="" style="edgeStyle=none;curved=1;rounded=0;orthogonalLoop=1;jettySize=auto;html=1;fontSize=12;startSize=8;endSize=8;" parent="1" source="OOp7aShyH6z5rNpulKWo-5" target="OOp7aShyH6z5rNpulKWo-10" edge="1">
          <mxGeometry relative="1" as="geometry" />
        </mxCell>
        <mxCell id="OOp7aShyH6z5rNpulKWo-5" value="传送至小游戏服" style="whiteSpace=wrap;html=1;fontSize=16;" parent="1" vertex="1">
          <mxGeometry x="58" y="690.25" width="120" height="60" as="geometry" />
        </mxCell>
        <mxCell id="OOp7aShyH6z5rNpulKWo-7" value="中途有玩家退出重连后取消此小游戏资格并修改为旁观模式 直至游戏结束传送回大厅" style="whiteSpace=wrap;html=1;fontSize=16;" parent="1" vertex="1">
          <mxGeometry x="298" y="652.13" width="120" height="136.25" as="geometry" />
        </mxCell>
        <mxCell id="OOp7aShyH6z5rNpulKWo-15" value="" style="edgeStyle=none;curved=1;rounded=0;orthogonalLoop=1;jettySize=auto;html=1;fontSize=12;startSize=8;endSize=8;" parent="1" source="OOp7aShyH6z5rNpulKWo-10" target="OOp7aShyH6z5rNpulKWo-14" edge="1">
          <mxGeometry relative="1" as="geometry" />
        </mxCell>
        <mxCell id="OOp7aShyH6z5rNpulKWo-10" value="每场小游戏后将有1分钟休息时间 四轮小游戏后将会有三分钟休息时间" style="whiteSpace=wrap;html=1;fontSize=16;" parent="1" vertex="1">
          <mxGeometry x="58" y="870.25" width="120" height="104.75" as="geometry" />
        </mxCell>
        <mxCell id="OOp7aShyH6z5rNpulKWo-17" value="" style="edgeStyle=none;curved=1;rounded=0;orthogonalLoop=1;jettySize=auto;html=1;fontSize=12;startSize=8;endSize=8;" parent="1" source="OOp7aShyH6z5rNpulKWo-14" target="OOp7aShyH6z5rNpulKWo-16" edge="1">
          <mxGeometry relative="1" as="geometry" />
        </mxCell>
        <mxCell id="OOp7aShyH6z5rNpulKWo-14" value="当八轮小游戏完成后公布所有排名 并选出第一第二名进入躲避箭" style="whiteSpace=wrap;html=1;fontSize=16;" parent="1" vertex="1">
          <mxGeometry x="58" y="1117.38" width="120" height="104.63" as="geometry" />
        </mxCell>
        <mxCell id="OOp7aShyH6z5rNpulKWo-19" value="" style="edgeStyle=none;curved=1;rounded=0;orthogonalLoop=1;jettySize=auto;html=1;fontSize=12;startSize=8;endSize=8;" parent="1" source="OOp7aShyH6z5rNpulKWo-16" target="OOp7aShyH6z5rNpulKWo-18" edge="1">
          <mxGeometry relative="1" as="geometry" />
        </mxCell>
        <mxCell id="OOp7aShyH6z5rNpulKWo-16" value="躲避箭才用三胜&lt;br&gt;详情请看wiki规则介绍&lt;br&gt;" style="whiteSpace=wrap;html=1;fontSize=16;" parent="1" vertex="1">
          <mxGeometry x="58" y="1364.3250000000003" width="120" height="60" as="geometry" />
        </mxCell>
        <mxCell id="OOp7aShyH6z5rNpulKWo-18" value="当一方玩家获得胜利 游戏结束" style="whiteSpace=wrap;html=1;fontSize=16;" parent="1" vertex="1">
          <mxGeometry x="58" y="1544.3250000000003" width="120" height="60" as="geometry" />
        </mxCell>
        <mxCell id="6spwImOaTPiOzij4EY0N-1" value="管理员拥有停止游戏 继续游戏 暂停游戏等权限&lt;br&gt;" style="whiteSpace=wrap;html=1;fontSize=16;" parent="1" vertex="1">
          <mxGeometry x="-331" y="941" width="236" height="175" as="geometry" />
        </mxCell>
        <mxCell id="JtdZd5Om7BtnupZR3lzy-1" value="当出现大规模掉线时 将投票决定是否重启小游戏 若遇到服务商故障等导致短时间无法重新开始此小游戏时决定是否择日重新开始联赛" style="whiteSpace=wrap;html=1;fontSize=25;" vertex="1" parent="1">
          <mxGeometry x="-351" y="190" width="268" height="197" as="geometry" />
        </mxCell>
      </root>
    </mxGraphModel>
  </diagram>
</mxfile>
